<svg xmlns="http://www.w3.org/2000/svg" viewBox="0 0 526.9 239.1"><path d="M399.4 477a32.1 32.1 0 0 1-32 32.1V537a59.9 59.9 0 0 0 59.8-60V373a158.3 158.3 0 0 0-27.8 15.5Zm435.1-119.3a59.8 59.8 0 1 0 0 119.5H847v-27.8h-12.5a32 32 0 1 1 32-32v59.8h27.8v-59.8a59.7 59.7 0 0 0-59.8-59.7Zm-189.1 0a59 59 0 0 0-31.9 9.3v-69.1h-27.8v179.3h27.8v-59.8a32 32 0 0 1 63.9 0v59.8h27.8v-59.8a59.7 59.7 0 0 0-59.8-59.7Zm80.7 119.5h27.8v-88.7a162 162 0 0 0-27.8-15.5ZM505 357.7a59.8 59.8 0 1 0 0 119.5h12.5v-27.8H505a32 32 0 1 1 32-32v59.8h27.8v-59.8a59.7 59.7 0 0 0-59.8-59.7Z" fill="#06051d" transform="translate(-367.4 -297.9)"/><path d="M358.7 38.8v17.8a185.8 185.8 0 0 1 27.8 14.1V38.8ZM59.8 38.8v17.8A176.7 176.7 0 0 0 32 70.7V38.8Z" fill="#00a0e3"/></svg>