<svg width="2880" height="3732" viewBox="0 0 2880 3732" fill="none" xmlns="http://www.w3.org/2000/svg">
<g clip-path="url(#clip0_669_592)">
<g opacity="0.6" filter="url(#filter0_f_669_592)">
<path d="M1958.36 -696.484C2040.15 -719.297 2183.17 -757.854 2361.5 -749.949C2449.39 -746.053 2534.46 -735.907 2603.66 -724.31C2638.34 -718.5 2672.14 -711.807 2702.63 -704.431C2723.1 -699.476 2771.25 -687.612 2818.42 -665.546L2820.67 -664.488L2822.97 -663.385C3018.26 -569.099 3101.06 -334.678 3007.88 -138.503C2919.39 47.7968 2703.88 132.866 2514.14 62.3306C2505.57 60.3486 2491.75 57.5122 2473.18 54.401C2431.54 47.4236 2378.57 41.1502 2326.53 38.8433C2285.01 37.0027 2247.1 43.6101 2193.81 57.702C2200.06 80.0355 2212.35 116.728 2236.75 181.305C2273.29 277.991 2349.13 427.118 2409.2 558.322C2484.12 721.938 2505.84 823.941 2519.66 931.984C2547.28 1147.79 2456.41 1305.71 2429.33 1356.37C2313.47 1573.11 2089.17 1617.22 2020.6 1631.27C1871.84 1661.74 1715.91 1636.49 1663.52 1630.26L1651.51 1628.84L1639.61 1626.68C1532.66 1607.28 1411.95 1579.31 1300.06 1524.35L1291.99 1520.39L1284.12 1516.07C1234.43 1488.78 1170.82 1449.33 1119.45 1417.58C933.982 1302.96 876.545 1059.68 991.164 874.211C1105.78 688.738 1349.06 631.3 1534.53 745.921C1586.47 778.021 1626.3 802.521 1653.93 818.25C1655.72 818.994 1657.77 819.801 1660.1 820.666C1612.15 719.796 1536.66 562.267 1498.17 460.403C1448.14 327.997 1392.67 178.755 1402.83 19.2668L1403.03 15.9983C1407.36 -55.0994 1416.36 -279.528 1570.75 -449.63L1572.65 -451.719C1653.35 -540.269 1769.4 -643.782 1958.36 -696.484Z" fill="#49B3F5"/>
</g>
<g opacity="0.2" filter="url(#filter1_f_669_592)">
<path d="M2352.38 -114.484C2434.18 -137.297 2577.19 -175.854 2755.52 -167.949C2843.42 -164.053 2928.48 -153.907 2997.69 -142.31C3032.36 -136.5 3066.17 -129.807 3096.65 -122.431C3117.13 -117.476 3165.27 -105.612 3212.45 -83.5465L3214.69 -82.4878L3217 -81.3852C3412.29 12.9008 3495.09 247.322 3401.9 443.497C3313.41 629.797 3097.91 714.866 2908.17 644.331C2899.59 642.349 2885.77 639.512 2867.21 636.401C2825.57 629.424 2772.6 623.15 2720.56 620.843C2679.03 619.003 2641.12 625.61 2587.83 639.702C2594.08 662.036 2606.38 698.728 2630.78 763.305C2667.31 859.991 2743.15 1009.12 2803.23 1140.32C2878.15 1303.94 2899.86 1405.94 2913.69 1513.98C2941.31 1729.79 2850.43 1887.71 2823.35 1938.37C2707.5 2155.11 2483.19 2199.22 2414.62 2213.27C2265.86 2243.74 2109.93 2218.49 2057.54 2212.26L2045.53 2210.84L2033.63 2208.68C1926.69 2189.28 1805.98 2161.31 1694.08 2106.35L1686.02 2102.39L1678.15 2098.07C1628.45 2070.78 1564.85 2031.33 1513.48 1999.58C1328.01 1884.96 1270.57 1641.68 1385.19 1456.21C1499.81 1270.74 1743.08 1213.3 1928.55 1327.92C1980.49 1360.02 2020.32 1384.52 2047.95 1400.25C2049.75 1400.99 2051.79 1401.8 2054.13 1402.67C2006.17 1301.8 1930.69 1144.27 1892.19 1042.4C1842.16 909.997 1786.69 760.755 1796.85 601.267L1797.06 597.998C1801.39 526.901 1810.39 302.472 1964.77 132.37L1966.67 130.281C2047.38 41.7308 2163.42 -61.7821 2352.38 -114.484Z" fill="#D6217D"/>
</g>
<g opacity="0.65" filter="url(#filter2_f_669_592)">
<path d="M866.481 228.745C915.666 212.36 1001.54 184.951 1103.18 202.973C1153.28 211.855 1201.15 226.396 1239.77 241.342C1259.12 248.831 1277.88 257.09 1294.67 265.788C1305.95 271.631 1332.45 285.569 1357.4 308.96L1358.59 310.081L1359.8 311.246C1462.81 410.822 1487.63 634.34 1415.1 811.686C1346.21 980.105 1214.2 1046.55 1112.08 969.452C1107.35 967.092 1099.68 963.622 1089.32 959.613C1066.09 950.62 1036.27 941.607 1006.61 936.348C982.946 932.152 960.534 936.048 928.562 946.004C929.986 967.201 933.489 1002.15 941.24 1063.82C952.846 1156.15 981.938 1299.72 1003.72 1425.64C1030.87 1582.67 1033.45 1679.08 1030.92 1780.64C1025.85 1983.51 958.349 2125.32 937.885 2170.94C850.336 2366.11 717.243 2393.84 676.503 2402.84C588.117 2422.37 501.02 2389.51 471.534 2380.58L464.776 2378.53L458.152 2375.81C398.616 2351.33 332.007 2318.05 273.076 2260.11L268.83 2255.94L264.729 2251.44C238.835 2223.03 206.135 2182.45 179.712 2149.78C84.3138 2031.83 74.9192 1801.57 158.728 1635.48C242.538 1469.39 387.814 1430.37 483.212 1548.32C509.928 1581.35 530.428 1606.57 544.77 1622.89C545.727 1623.69 546.825 1624.56 548.081 1625.51C530.321 1528.59 502.248 1377.21 490.02 1279.93C474.127 1153.49 456.745 1011.02 478.046 862.926L478.479 859.89C487.86 793.858 514.79 585.141 619.946 435.76L621.239 433.925C676.173 356.182 752.854 266.598 866.481 228.745Z" fill="white"/>
</g>
</g>
<defs>
<filter id="filter0_f_669_592" x="-37.8438" y="-1721" width="4054" height="4337" filterUnits="userSpaceOnUse" color-interpolation-filters="sRGB">
<feFlood flood-opacity="0" result="BackgroundImageFix"/>
<feBlend mode="normal" in="SourceGraphic" in2="BackgroundImageFix" result="shape"/>
<feGaussianBlur stdDeviation="485" result="effect1_foregroundBlur_669_592"/>
</filter>
<filter id="filter1_f_669_592" x="356.18" y="-1139" width="4054" height="4337" filterUnits="userSpaceOnUse" color-interpolation-filters="sRGB">
<feFlood flood-opacity="0" result="BackgroundImageFix"/>
<feBlend mode="normal" in="SourceGraphic" in2="BackgroundImageFix" result="shape"/>
<feGaussianBlur stdDeviation="485" result="effect1_foregroundBlur_669_592"/>
</filter>
<filter id="filter2_f_669_592" x="-868.461" y="-772.939" width="3295.14" height="4151.87" filterUnits="userSpaceOnUse" color-interpolation-filters="sRGB">
<feFlood flood-opacity="0" result="BackgroundImageFix"/>
<feBlend mode="normal" in="SourceGraphic" in2="BackgroundImageFix" result="shape"/>
<feGaussianBlur stdDeviation="485" result="effect1_foregroundBlur_669_592"/>
</filter>
<clipPath id="clip0_669_592">
<rect width="2880" height="7464" fill="white" transform="translate(0 -3732)"/>
</clipPath>
</defs>
</svg>
