<svg width="2880" height="3732" viewBox="0 0 2880 3732" fill="none" xmlns="http://www.w3.org/2000/svg">
<g clip-path="url(#clip0_669_592)">
<g opacity="0.6" filter="url(#filter0_f_669_592)">
<path d="M1958.36 3035.52C2040.15 3012.7 2183.17 2974.15 2361.5 2982.05C2449.39 2985.95 2534.46 2996.09 2603.66 3007.69C2638.34 3013.5 2672.14 3020.19 2702.63 3027.57C2723.1 3032.52 2771.25 3044.39 2818.42 3066.45L2820.67 3067.51L2822.97 3068.61C3018.26 3162.9 3101.06 3397.32 3007.88 3593.5C2919.39 3779.8 2703.88 3864.87 2514.14 3794.33C2505.57 3792.35 2491.75 3789.51 2473.18 3786.4C2431.54 3779.42 2378.57 3773.15 2326.53 3770.84C2285.01 3769 2247.1 3775.61 2193.81 3789.7C2200.06 3812.04 2212.35 3848.73 2236.75 3913.3C2273.29 4009.99 2349.13 4159.12 2409.2 4290.32C2484.12 4453.94 2505.84 4555.94 2519.66 4663.98C2547.28 4879.79 2456.41 5037.71 2429.33 5088.37C2313.47 5305.11 2089.17 5349.22 2020.6 5363.27C1871.84 5393.74 1715.91 5368.49 1663.52 5362.26L1651.51 5360.84L1639.61 5358.68C1532.66 5339.28 1411.95 5311.31 1300.06 5256.35L1291.99 5252.39L1284.12 5248.07C1234.43 5220.78 1170.82 5181.33 1119.45 5149.58C933.982 5034.96 876.545 4791.68 991.164 4606.21C1105.78 4420.74 1349.06 4363.3 1534.53 4477.92C1586.47 4510.02 1626.3 4534.52 1653.93 4550.25C1655.72 4550.99 1657.77 4551.8 1660.1 4552.67C1612.15 4451.8 1536.66 4294.27 1498.17 4192.4C1448.14 4060 1392.67 3910.75 1402.83 3751.27L1403.03 3748C1407.36 3676.9 1416.36 3452.47 1570.75 3282.37L1572.65 3280.28C1653.35 3191.73 1769.4 3088.22 1958.36 3035.52Z" fill="#49B3F5"/>
</g>
<g opacity="0.2" filter="url(#filter1_f_669_592)">
<path d="M2352.38 3617.52C2434.18 3594.7 2577.19 3556.15 2755.52 3564.05C2843.42 3567.95 2928.48 3578.09 2997.69 3589.69C3032.36 3595.5 3066.17 3602.19 3096.65 3609.57C3117.13 3614.52 3165.27 3626.39 3212.45 3648.45L3214.69 3649.51L3217 3650.61C3412.29 3744.9 3495.09 3979.32 3401.9 4175.5C3313.41 4361.8 3097.91 4446.87 2908.17 4376.33C2899.59 4374.35 2885.77 4371.51 2867.21 4368.4C2825.57 4361.42 2772.6 4355.15 2720.56 4352.84C2679.03 4351 2641.12 4357.61 2587.83 4371.7C2594.08 4394.04 2606.38 4430.73 2630.78 4495.3C2667.31 4591.99 2743.15 4741.12 2803.23 4872.32C2878.15 5035.94 2899.86 5137.94 2913.69 5245.98C2941.31 5461.79 2850.43 5619.71 2823.35 5670.37C2707.5 5887.11 2483.19 5931.22 2414.62 5945.27C2265.86 5975.74 2109.93 5950.49 2057.54 5944.26L2045.53 5942.84L2033.63 5940.68C1926.69 5921.28 1805.98 5893.31 1694.08 5838.35L1686.02 5834.39L1678.15 5830.07C1628.45 5802.78 1564.85 5763.33 1513.48 5731.58C1328.01 5616.96 1270.57 5373.68 1385.19 5188.21C1499.81 5002.74 1743.08 4945.3 1928.55 5059.92C1980.49 5092.02 2020.32 5116.52 2047.95 5132.25C2049.75 5132.99 2051.79 5133.8 2054.13 5134.67C2006.17 5033.8 1930.69 4876.27 1892.19 4774.4C1842.16 4642 1786.69 4492.75 1796.85 4333.27L1797.06 4330C1801.39 4258.9 1810.39 4034.47 1964.77 3864.37L1966.67 3862.28C2047.38 3773.73 2163.42 3670.22 2352.38 3617.52Z" fill="#D6217D"/>
</g>
<g opacity="0.65" filter="url(#filter2_f_669_592)">
<path d="M866.481 3960.75C915.666 3944.36 1001.54 3916.95 1103.18 3934.97C1153.28 3943.86 1201.15 3958.4 1239.77 3973.34C1259.12 3980.83 1277.88 3989.09 1294.67 3997.79C1305.95 4003.63 1332.45 4017.57 1357.4 4040.96L1358.59 4042.08L1359.8 4043.25C1462.81 4142.82 1487.63 4366.34 1415.1 4543.69C1346.21 4712.1 1214.2 4778.55 1112.08 4701.45C1107.35 4699.09 1099.68 4695.62 1089.32 4691.61C1066.09 4682.62 1036.27 4673.61 1006.61 4668.35C982.946 4664.15 960.534 4668.05 928.562 4678C929.986 4699.2 933.489 4734.15 941.24 4795.82C952.846 4888.15 981.938 5031.72 1003.72 5157.64C1030.87 5314.67 1033.45 5411.08 1030.92 5512.64C1025.85 5715.51 958.349 5857.32 937.885 5902.94C850.336 6098.11 717.243 6125.84 676.503 6134.84C588.117 6154.37 501.02 6121.51 471.534 6112.58L464.776 6110.53L458.152 6107.81C398.616 6083.33 332.007 6050.05 273.076 5992.11L268.83 5987.94L264.729 5983.44C238.835 5955.03 206.135 5914.45 179.712 5881.78C84.3138 5763.83 74.9192 5533.57 158.728 5367.48C242.538 5201.39 387.814 5162.37 483.212 5280.32C509.928 5313.35 530.428 5338.57 544.77 5354.89C545.727 5355.69 546.825 5356.56 548.081 5357.51C530.321 5260.59 502.248 5109.21 490.02 5011.93C474.127 4885.49 456.745 4743.02 478.046 4594.93L478.479 4591.89C487.86 4525.86 514.79 4317.14 619.946 4167.76L621.239 4165.93C676.173 4088.18 752.854 3998.6 866.481 3960.75Z" fill="white"/>
</g>
</g>
<defs>
<filter id="filter0_f_669_592" x="-37.8438" y="2011" width="4054" height="4337" filterUnits="userSpaceOnUse" color-interpolation-filters="sRGB">
<feFlood flood-opacity="0" result="BackgroundImageFix"/>
<feBlend mode="normal" in="SourceGraphic" in2="BackgroundImageFix" result="shape"/>
<feGaussianBlur stdDeviation="485" result="effect1_foregroundBlur_669_592"/>
</filter>
<filter id="filter1_f_669_592" x="356.18" y="2593" width="4054" height="4337" filterUnits="userSpaceOnUse" color-interpolation-filters="sRGB">
<feFlood flood-opacity="0" result="BackgroundImageFix"/>
<feBlend mode="normal" in="SourceGraphic" in2="BackgroundImageFix" result="shape"/>
<feGaussianBlur stdDeviation="485" result="effect1_foregroundBlur_669_592"/>
</filter>
<filter id="filter2_f_669_592" x="-868.461" y="2959.06" width="3295.14" height="4151.87" filterUnits="userSpaceOnUse" color-interpolation-filters="sRGB">
<feFlood flood-opacity="0" result="BackgroundImageFix"/>
<feBlend mode="normal" in="SourceGraphic" in2="BackgroundImageFix" result="shape"/>
<feGaussianBlur stdDeviation="485" result="effect1_foregroundBlur_669_592"/>
</filter>
<clipPath id="clip0_669_592">
<rect width="2880" height="7464" fill="white"/>
</clipPath>
</defs>
</svg>
